# xmcd CD database file
# Copyright (C) 1997 Ti Kan
# 
# Track frame offsets:
#     152
#     18465
#     36392
#     53555
#     67175
#     88912
#     107830
#     125437
#     148767
#     167522
# 
# Disc length: 2391 seconds
# 
# Revision: 1
# Processed by: cddbd v1.4b41PL1 Copyright (c) Steve Scherf et al.
# Submitted via: DiscPlay 4.0.3
# 
DISCID=8e09550a
DTITLE=Noble "Thin Man" Watts - King Of The Boogie Sax
DYEAR=1900
DGENRE=
TTITLE0=Boogie Sax
TTITLE1=Georgia Mule
TTITLE2=Send Me Someone To Love
TTITLE3=Jammin' At The Junk Yard
TTITLE4=Stealin' Bessie's Greens
TTITLE5=Night Owl
TTITLE6=Drown In My Own Tears
TTITLE7=Mojo Woman
TTITLE8=Highway 95
TTITLE9=Crusin' The Keys
EXTD=Noble "Thin Man" Watts - tenor sax\nErnie Lancaster - guitar, lead guit
EXTD=ar on #10\nWarren King - guitar, lead guitar on #7\nBob Greenlee - bass
EXTD=\nRonnie "Byrd" Foster - drums\nLucky Peterson - piano and organ\nJimmy
EXTD=Spruill - lead guitar on #2\nClarence "Gatemouth" Brown - guitar solo 
EXTD=on #8,\n    fiddle on #7\nKenny Neal - rhythm guitar on #8\nAnn Rabson 
EXTD=piano on #4 and #7\nDenny Best - drums on #1
EXTT0=
EXTT1=
EXTT2=
EXTT3=
EXTT4=
EXTT5=
EXTT6=
EXTT7=
EXTT8=
EXTT9=
PLAYORDER=
